<?xml version="1.0" encoding="UTF-8"?><svg id="Capa_2" xmlns="http://www.w3.org/2000/svg" viewBox="0 0 120 135.71"><defs><style>.cls-1{fill:#ef27db;}</style></defs><g id="Capa_1-2"><path class="cls-1" d="m84.57,20.96l-9,15.57c15.58,6.19,26.59,21.4,26.59,39.19,0,23.28-18.88,42.16-42.16,42.16s-42.16-18.88-42.16-42.16c0-17.79,11.01-32.99,26.58-39.19l-8.98-15.57C14.55,30.35,0,51.33,0,75.72c0,33.12,26.87,59.99,60,59.99s60-26.87,60-59.99c0-24.39-14.54-45.37-35.43-54.76Z"/><circle class="cls-1" cx="60" cy="75.72" r="20.73"/><path class="cls-1" d="m65,42.85l19.74-34.2c2.22-3.85-.56-8.65-5-8.65h-39.49c-4.44,0-7.22,4.81-5,8.65l19.74,34.2c2.22,3.85,7.77,3.85,9.99,0Z"/></g></svg>