<?xml version="1.0" encoding="UTF-8"?><svg id="Capa_2" xmlns="http://www.w3.org/2000/svg" viewBox="0 0 742.9 135.71"><defs><style>.cls-1{fill:#fff;}.cls-2{fill:#ef27db;}</style></defs><g id="Capa_1-2"><path class="cls-2" d="m84.57,20.96l-9,15.57c15.58,6.19,26.59,21.4,26.59,39.19,0,23.28-18.88,42.16-42.16,42.16s-42.16-18.88-42.16-42.16c0-17.79,11.01-32.99,26.58-39.19l-8.98-15.57C14.55,30.35,0,51.33,0,75.72c0,33.12,26.87,59.99,60,59.99s60-26.87,60-59.99c0-24.39-14.54-45.37-35.43-54.76Z"/><circle class="cls-2" cx="60" cy="75.72" r="20.73"/><path class="cls-2" d="m65,42.85l19.74-34.2c2.22-3.85-.56-8.65-5-8.65h-39.49c-4.44,0-7.22,4.81-5,8.65l19.74,34.2c2.22,3.85,7.77,3.85,9.99,0Z"/><path class="cls-1" d="m148.59,24.58h40.93c28.69,0,48.35,16.69,48.35,43.28s-19.66,43.28-48.35,43.28h-40.93V24.58Zm39.94,67.02c14.72,0,24.61-8.78,24.61-23.74s-9.89-23.74-24.61-23.74h-15.46v47.48h15.46Z"/><path class="cls-1" d="m250.73,24.58h24.48v86.56h-24.48V24.58Z"/><path class="cls-1" d="m380.2,24.58l-37.1,86.56h-24.11l-36.97-86.56h26.46l23.5,56.39,23.99-56.39h24.24Z"/><path class="cls-1" d="m459.1,91.72v19.41h-77.53v-15.33l43.65-51.81h-42.54v-19.41h74.57v15.33l-43.65,51.81h45.51Z"/><path class="cls-1" d="m464.67,67.86c0-25.97,20.4-45.01,48.1-45.01s48.1,19.04,48.1,45.01-20.4,45.01-48.1,45.01-48.1-19.04-48.1-45.01Zm71.47,0c0-14.96-10.26-24.73-23.37-24.73s-23.37,9.77-23.37,24.73,10.26,24.73,23.37,24.73,23.37-9.77,23.37-24.73Z"/><path class="cls-1" d="m656.09,24.58v86.56h-20.16l-38.21-46.12v46.12h-23.99V24.58h20.16l38.21,46.12V24.58h23.99Z"/><path class="cls-1" d="m742.9,92.22v18.92h-69.5V24.58h67.89v18.92h-43.65v14.59h38.46v18.3h-38.46v15.83h45.26Z"/></g></svg>